<?xml version="1.0" encoding="utf-8"?>
<!-- Generator: Adobe Illustrator 25.4.1, SVG Export Plug-In . SVG Version: 6.00 Build 0)  -->
<svg version="1.1" id="Layer_1" xmlns="http://www.w3.org/2000/svg" xmlns:xlink="http://www.w3.org/1999/xlink" x="0px" y="0px"
	 viewBox="0 0 200 200" style="enable-background:new 0 0 200 200;" xml:space="preserve">
<style type="text/css">
	.st0{display:none;}
	.st1{display:inline;opacity:0.5;enable-background:new    ;}
	.st2{display:inline;fill:#FFFFFF;}
	.st3{opacity:0.5;enable-background:new    ;}
	.st4{display:inline;}
	.st5{fill:#FFFFFF;}
</style>
<g id="_x35__00000016060143872020837590000006779383367433356181_" class="st0">
	<path class="st1" d="M175,5.3H25C12.1,5.3,1.8,15.7,1.8,28.5v112c0,12.8,10.4,23.2,23.2,23.2h46c7,0,13.5,3.9,16.8,10.1l6.9,13.1
		c2.3,4.4,8.6,4.4,10.9,0l6.9-13.1c3.3-6.2,9.7-10.1,16.7-10.1h46c12.8,0,23.2-10.4,23.2-23.2v-112C198.2,15.7,187.9,5.3,175,5.3z"
		/>
	<path class="st2" d="M138.3,57.7L115.4,99l-12.5,22.6c-1.2,2.2-4.4,1.7-4.9-0.8L90.5,84c-0.1-0.6-0.4-1.1-0.8-1.5L62.3,58.4
		c-1.8-1.6-0.7-4.6,1.8-4.6H136c1,0,1.8,0.5,2.3,1.3C138.7,55.8,138.8,56.8,138.3,57.7z"/>
</g>
<path class="st3" d="M174.1,5.9H25.8C11.5,5.9,0,17.4,0,31.7v109.7c0,14.2,11.5,25.8,25.8,25.8h44.7c7.1,0,13.7,4,17,10.3l7,13.3
	c2.3,4.5,8.8,4.5,11.1,0l7-13.3c3.4-6.3,9.9-10.3,17.1-10.3h44.6c14.2,0,25.8-11.5,25.8-25.8V31.7C199.9,17.4,188.4,5.9,174.1,5.9z"
	/>
<g id="_x32_" class="st0">
	<path class="st1" d="M175,5.3H25C12.1,5.3,1.8,15.7,1.8,28.5v112c0,12.8,10.4,23.2,23.2,23.2h46c7,0,13.5,3.9,16.7,10.1l6.9,13.1
		c2.3,4.4,8.6,4.4,10.9,0l6.9-13.1c3.3-6.2,9.7-10.1,16.8-10.1h46c12.8,0,23.2-10.4,23.2-23.2v-112C198.2,15.7,187.9,5.3,175,5.3z"
		/>
	<path class="st2" d="M79.8,119.7c0,2.8-2.3,5.2-5.2,5.2h-6.9c-2.8,0-5.2-2.3-5.2-5.2v-6.9c0-2.8,2.3-5.2,5.2-5.2h6.9
		c2.8,0,5.2,2.3,5.2,5.2V119.7z"/>
	<path class="st2" d="M79.8,100.3c0,2.8-2.3,5.2-5.2,5.2h-6.9c-2.8,0-5.2-2.3-5.2-5.2v-6.9c0-2.8,2.3-5.2,5.2-5.2h6.9
		c2.8,0,5.2,2.3,5.2,5.2V100.3z"/>
	<path class="st2" d="M79.8,80.8c0,2.8-2.3,5.2-5.2,5.2h-6.9c-2.8,0-5.2-2.3-5.2-5.2v-6.9c0-2.8,2.3-5.2,5.2-5.2h6.9
		c2.8,0,5.2,2.3,5.2,5.2V80.8z"/>
	<path class="st2" d="M79.8,61.4c0,2.8-2.3,5.2-5.2,5.2h-6.9c-2.8,0-5.2-2.3-5.2-5.2v-6.9c0-2.8,2.3-5.2,5.2-5.2h6.9
		c2.8,0,5.2,2.3,5.2,5.2V61.4z"/>
	<path class="st2" d="M99,100.3c0,2.8-2.3,5.2-5.2,5.2h-6.9c-2.8,0-5.2-2.3-5.2-5.2v-6.9c0-2.8,2.3-5.2,5.2-5.2h6.9
		c2.8,0,5.2,2.3,5.2,5.2V100.3z"/>
	<path class="st2" d="M99,80.8c0,2.8-2.3,5.2-5.2,5.2h-6.9c-2.8,0-5.2-2.3-5.2-5.2v-6.9c0-2.8,2.3-5.2,5.2-5.2h6.9
		c2.8,0,5.2,2.3,5.2,5.2V80.8z"/>
	<path class="st2" d="M99,61.4c0,2.8-2.3,5.2-5.2,5.2h-6.9c-2.8,0-5.2-2.3-5.2-5.2v-6.9c0-2.8,2.3-5.2,5.2-5.2h6.9
		c2.8,0,5.2,2.3,5.2,5.2V61.4z"/>
	<path class="st2" d="M118.2,80.8c0,2.8-2.3,5.2-5.2,5.2h-6.9c-2.8,0-5.2-2.3-5.2-5.2v-6.9c0-2.8,2.3-5.2,5.2-5.2h6.9
		c2.8,0,5.2,2.3,5.2,5.2V80.8z"/>
	<path class="st2" d="M118.2,61.4c0,2.8-2.3,5.2-5.2,5.2h-6.9c-2.8,0-5.2-2.3-5.2-5.2v-6.9c0-2.8,2.3-5.2,5.2-5.2h6.9
		c2.8,0,5.2,2.3,5.2,5.2V61.4z"/>
	<path class="st2" d="M137.4,61.4c0,2.8-2.3,5.2-5.1,5.2h-6.9c-2.8,0-5.2-2.3-5.2-5.2v-6.9c0-2.8,2.3-5.2,5.2-5.2h6.9
		c2.8,0,5.1,2.3,5.1,5.2V61.4z"/>
</g>
<g id="_x34__00000120550291117926631110000017801874468377612933_" class="st0">
	<path class="st1" d="M175,7.5H25C12.1,7.5,1.8,17.9,1.8,30.7v112C1.8,155.6,12.1,166,25,166h46c7.1,0,13.5,3.9,16.8,10.1l6.9,13.1
		c2.3,4.4,8.6,4.4,10.9,0l6.9-13.1c3.3-6.2,9.7-10.1,16.7-10.1h46c12.8,0,23.2-10.4,23.2-23.2v-112C198.2,17.9,187.9,7.5,175,7.5z"
		/>
	<g class="st4">
		<circle class="st5" cx="100" cy="89.3" r="18.5"/>
		<g>
			<circle class="st5" cx="136.1" cy="112.3" r="5"/>
			<path class="st5" d="M134.8,47.6H65.2c-11.1,0-20,9-20,20V111c0,11.1,9,20,20,20h69.7c11.1,0,20-9,20-20V67.6
				C154.9,56.6,145.9,47.6,134.8,47.6z M100,111.7c-12.4,0-22.4-10-22.4-22.4s10-22.4,22.4-22.4s22.4,10,22.4,22.4
				S112.4,111.7,100,111.7z M136.1,120.3c-4.4,0-8-3.6-8-8s3.6-8,8-8s8,3.6,8,8S140.5,120.3,136.1,120.3z"/>
		</g>
	</g>
</g>
<g id="_x33_" class="st0">
	<g id="_x31_" class="st4">
		<path class="st3" d="M172.9,7.5H27.1c-14,0-25.3,11.3-25.3,25.3v107.8c0,14,11.3,25.3,25.3,25.3H71c7,0,13.5,3.9,16.7,10.1
			l6.9,13.1c2.3,4.4,8.6,4.4,10.9,0l6.9-13.1c3.3-6.2,9.7-10.1,16.8-10.1h43.9c14,0,25.3-11.3,25.3-25.3V32.8
			C198.2,18.8,186.9,7.5,172.9,7.5z"/>
	</g>
	<g class="st4">
		<path class="st5" d="M37.5,86.8c3.1,0.3,6.1,0.4,9.2,0.4c-2.8-2.3-4.9-5-6.4-7.9c-1.3-0.1-2.6-0.2-3.9-0.3
			c-2.8-0.3-4.8,1.5-4.4,4.2c0.2,1.3,0.4,2.7,0.6,4C34,86.8,35.7,86.7,37.5,86.8z"/>
		<path class="st5" d="M39.7,101.8c8.7,0.9,17.2,0.2,25.6-1.6l-9.4-6.5c-5.7,0.7-11.4,0.8-17.3,0.2c-0.7-0.1-1.4,0-2,0.2
			c-1.7,0.5-2.7,2-2.4,4c0.1,0.6,0.2,1.2,0.3,1.9c0.1,0.7,0.2,1.4,0.3,2.1C36.2,101.7,37.9,101.6,39.7,101.8z"/>
		<path class="st5" d="M88,104.1l-5.4,7.9l-9.5-6.5c-10.5,2.9-21.3,4.5-32.4,3.3c-0.7-0.1-1.4,0-2,0.2c-1.7,0.5-2.7,2-2.4,4
			c0.1,0.6,0.2,1.2,0.3,1.9c0.2,1.3,0.4,2.7,0.6,4c0.4,2.7,3,5.4,5.8,5.7c19.9,2.1,38.4-4.6,56.9-11.8l-8.1-5.5
			C90.4,106.2,89.1,105.2,88,104.1z"/>
		<path class="st5" d="M110.6,65.1c1.2,0.3,2.4,0.8,3.6,1.4c4.9-5,11.2-7.6,17.9-7.1c2.4,0.2,4.7,0.8,6.9,1.7
			c6.3-0.9,12.7-1.2,19.2-0.5c1.8,0.2,3.6,0.8,5.3,1.8c-0.2-1.3-0.4-2.7-0.6-4c-0.4-2.7-3-5.4-5.8-5.7c-16.2-1.7-31.5,2.4-46.6,7.9
			C110.6,62.1,110.7,63.6,110.6,65.1z"/>
		<path class="st5" d="M161.3,68.3c-0.7-0.4-1.4-0.6-2.1-0.7c-3.8-0.4-7.6-0.5-11.3-0.3c1.5,1.6,2.7,3.5,3.6,5.4
			c0.4,0.8,0.7,1.5,1,2.3c2.6,0,5.2,0.1,7.8,0.4c1.8,0.2,3.6,0.8,5.3,1.8c-0.1-0.7-0.2-1.4-0.3-2.1c-0.1-0.6-0.2-1.2-0.3-1.9
			C164.7,71.3,163.2,69.3,161.3,68.3z"/>
		<path class="st5" d="M168,94.1c-0.2-1.3-0.4-2.7-0.6-4c-0.1-0.6-0.2-1.2-0.3-1.9c-0.3-2-1.8-4-3.8-5c-0.7-0.3-1.4-0.6-2.1-0.7
			c-2.6-0.3-5.1-0.4-7.7-0.4c0,4.7-1.6,9.5-4.6,13.9l-1.6,2.3c5.3-0.6,10.7-0.7,16.1-0.1C166.4,98.6,168.4,96.8,168,94.1z"/>
		<path class="st5" d="M52.4,78.9c0.6,0.6,1.3,1.1,2.1,1.7l7.2,4.9l7.9,5.4l8.4,5.7l2,1.4l1.8-2.6c0.2-0.1,0.3-0.1,0.5-0.2
			c0-0.1-0.1-0.3-0.1-0.4c-0.8-2.4-1.2-5-1.1-7.4c0-2.7,0.6-5.4,1.6-7.9c0.7-1.8,1.6-3.5,2.7-5.1c1.9-2.8,4.4-5.2,7.3-7
			c2.5-1,5-2,7.5-2.9c0.2,0,0.4-0.1,0.6-0.1v-0.1c0.1-2.2-0.5-4.1-1.2-5.6c-0.2-0.4-0.4-0.8-0.6-1.2c-2.2-3.6-6.3-6.2-10.6-6.5
			c-3.2-0.3-7.9,0.6-11.8,6.4l-2.8,4.1l-4.1-2.8c-3.1-2.1-6-2.9-8.4-2.9c-2,0-3.8,0.5-5.2,1.2c-4.4,2.1-7.6,6.7-7.9,11.5
			c-0.1,1.1,0,2.3,0.2,3.6C48.8,74.3,49.9,76.7,52.4,78.9z"/>
		<path class="st5" d="M141.8,75.9c-2-3.3-5.6-5.7-9.5-6.4c-0.4-0.1-0.7-0.1-1.1-0.1c-2.3-0.2-5.5,0.2-8.5,2.7
			c-1.1,0.9-2.2,2.1-3.3,3.7l-2.8,4.1l-4.1-2.8c-0.5-0.4-1-0.7-1.5-1c-1.1-0.6-2.1-1-3.1-1.3c-1.3-0.4-2.5-0.6-3.7-0.6
			c-0.6,0-1.2,0-1.8,0.1c-3.7,0.6-6.8,2.8-8.8,5.8c-0.7,1.1-1.3,2.2-1.7,3.4c-0.8,2.2-1,4.6-0.5,6.9l0.4,1.4
			c0.5,1.3,1.1,2.5,2.1,3.7c0.6,0.7,1.2,1.4,2,2.1c0.5,0.4,1,0.8,1.6,1.3l13.7,9.4l7,4.8l4.8,3.3l4.4-6.4l6.2-9.1l7.2-10.5
			c1.9-2.8,2.7-5.4,2.8-7.6c0.1-2.3-0.4-4.2-1.2-5.7C142.3,76.7,142.1,76.3,141.8,75.9z"/>
	</g>
</g>
<g>
	<path class="st5" d="M108.6,80.1c-3.2,0-6.5,2-8.7,4.6c-2.2-2.5-5.5-4.6-8.7-4.6c-4.7,0-8.7,2.9-10.5,7.6
		c-2.1,5.5-0.5,11.7,4.1,15.8l14,13.5c0.4,0.4,0.9,0.6,1.5,0.6c0.5,0,1.1-0.2,1.5-0.6l13.7-13.5c5.4-5.3,5.5-11.7,3.7-16
		C117.3,82.9,113.3,80.1,108.6,80.1z M112.5,100.4l-12.3,12.1l-12.6-12.1c-4-3.6-4.2-8.1-3-11.2c1.2-3,3.7-4.9,6.6-4.9
		c2.3,0,5.5,2.3,6.9,5c0.4,0.7,1.1,1.1,1.9,1.1c0,0,0,0,0,0c0.8,0,1.5-0.5,1.9-1.2c1.3-2.7,4.5-5,6.7-5c3,0,5.5,1.8,6.7,4.8
		C116.5,92.1,116.4,96.6,112.5,100.4z"/>
	<path class="st5" d="M137.4,42h-5.9v-4.4c0-1.2-0.9-2.1-2.1-2.1c-1.2,0-2.1,0.9-2.1,2.1V42h-15.4v-4.4c0-1.2-0.9-2.1-2.1-2.1
		s-2.1,0.9-2.1,2.1V42H92.3v-4.4c0-1.2-0.9-2.1-2.1-2.1s-2.1,0.9-2.1,2.1V42H72.7v-4.4c0-1.2-0.9-2.1-2.1-2.1
		c-1.2,0-2.1,0.9-2.1,2.1V42h-5.9c-7.1,0-12.9,5.8-12.9,12.9v67.7c0,7.1,5.8,12.9,12.9,12.9h74.9c7.1,0,12.9-5.8,12.9-12.9V54.9
		C150.4,47.8,144.6,42,137.4,42z M62.6,46.2h5.9v4.9c-1.2,0.7-2.1,2.1-2.1,3.6c0,2.3,1.9,4.2,4.2,4.2c2.3,0,4.2-1.9,4.2-4.2
		c0-1.5-0.8-2.9-2.1-3.6v-4.9h15.4v4.9c-1.2,0.7-2.1,2.1-2.1,3.6c0,2.3,1.9,4.2,4.2,4.2c2.3,0,4.2-1.9,4.2-4.2
		c0-1.5-0.8-2.9-2.1-3.6v-4.9h15.4v4.9c-1.2,0.7-2.1,2.1-2.1,3.6c0,2.3,1.9,4.2,4.2,4.2c2.3,0,4.2-1.9,4.2-4.2
		c0-1.5-0.8-2.9-2.1-3.6v-4.9h15.4v4.9c-1.2,0.7-2.1,2.1-2.1,3.6c0,2.3,1.9,4.2,4.2,4.2c2.3,0,4.2-1.9,4.2-4.2
		c0-1.5-0.8-2.9-2.1-3.6v-4.9h5.9c4.8,0,8.7,3.9,8.7,8.7v7.7H53.9v-7.7C53.9,50.1,57.8,46.2,62.6,46.2z M70.6,54.7
		C70.6,54.7,70.6,54.8,70.6,54.7l0-1.5c0,0,0,0,0,0L70.6,54.7z M90.2,54.7C90.2,54.7,90.2,54.8,90.2,54.7l0-1.5c0,0,0,0,0,0
		L90.2,54.7z M109.8,54.7C109.8,54.7,109.8,54.8,109.8,54.7l0-1.5c0,0,0,0,0,0L109.8,54.7z M129.4,54.7
		C129.4,54.7,129.4,54.8,129.4,54.7l0-1.5c0,0,0,0,0,0L129.4,54.7z M137.4,131.3H62.6c-4.8,0-8.7-3.9-8.7-8.7V66.9h92.3v55.7
		C146.1,127.4,142.2,131.3,137.4,131.3z"/>
</g>
</svg>
