<?xml version="1.0" encoding="utf-8"?>
<!-- Generator: Adobe Illustrator 25.4.1, SVG Export Plug-In . SVG Version: 6.00 Build 0)  -->
<svg version="1.1" id="Layer_1" xmlns="http://www.w3.org/2000/svg" xmlns:xlink="http://www.w3.org/1999/xlink" x="0px" y="0px"
	 viewBox="0 0 200 200" style="enable-background:new 0 0 200 200;" xml:space="preserve">
<style type="text/css">
	.st0{opacity:0.5;enable-background:new    ;}
	.st1{display:none;}
	.st2{display:inline;}
	.st3{fill:none;stroke:#FFFFFF;stroke-width:4.1;stroke-linecap:round;stroke-linejoin:round;stroke-miterlimit:22.9256;}
	.st4{display:inline;fill:none;stroke:#FFFFFF;stroke-width:4.1;stroke-miterlimit:22.9256;}
	.st5{display:inline;fill:none;stroke:#FFFFFF;stroke-width:2;stroke-miterlimit:22.9256;}
	.st6{fill:#FFFFFF;}
</style>
<path class="st0" d="M174.1,3.9H25.8C11.5,3.9,0,15.4,0,29.7v109.7c0,14.2,11.5,25.8,25.8,25.8h44.7c7.1,0,13.7,4,17,10.3l7,13.3
	c2.3,4.5,8.8,4.5,11.1,0l7-13.3c3.4-6.3,9.9-10.3,17.1-10.3h44.6c14.2,0,25.8-11.5,25.8-25.8V29.7C199.9,15.4,188.4,3.9,174.1,3.9z"
	/>
<g class="st1">
	<g class="st2">
		<path class="st3" d="M74.4,50.6l1-1.3c2.1-2.7,5.3-4.2,8.7-4.2h31.9c3.4,0,6.6,1.6,8.7,4.2l1,1.3c2.1,2.7,5.3,4.2,8.7,4.2h2.9
			c6.1,0,11,4.9,11,11v47.2c0,6.1-4.9,11-11,11H62.8c-6.1,0-11-4.9-11-11V65.8c0-6.1,4.9-11,11-11h2.9
			C69.1,54.8,72.3,53.3,74.4,50.6z"/>
	</g>
	<path class="st4" d="M100,64c12.3,0,22.2,10.4,21.5,22.9c-0.7,10.7-9.4,19.4-20.1,20.1c-12.5,0.8-22.9-9.1-22.9-21.5
		C78.5,73.7,88.1,64,100,64L100,64z"/>
	<path class="st5" d="M135.8,107c2.7,0,4.8,2.5,4.1,5.2c-0.3,1.5-1.6,2.8-3.1,3.1c-2.8,0.6-5.2-1.5-5.2-4.1
		C131.5,108.9,133.4,107,135.8,107L135.8,107z"/>
</g>
<g>
	<g>
		<g>
			<path class="st6" d="M137.2,126.1H62.8c-7.2,0-13-5.9-13-13V65.8c0-7.2,5.9-13,13-13h2.9c2.8,0,5.3-1.2,7-3.4l1-1.3
				c2.5-3.2,6.2-5,10.3-5h31.9c4,0,7.8,1.8,10.3,5l1,1.3c1.7,2.2,4.3,3.4,7,3.4h2.9c7.2,0,13,5.9,13,13v47.2
				C150.2,120.2,144.4,126.1,137.2,126.1z M62.8,56.9c-4.9,0-9,4-9,9v47.2c0,4.9,4,9,9,9h74.4c4.9,0,9-4,9-9V65.8c0-4.9-4-9-9-9
				h-2.9c-4,0-7.8-1.8-10.3-5l-1-1.3c-1.7-2.2-4.3-3.4-7-3.4H84.1c-2.8,0-5.3,1.2-7,3.4l-1,1.3c0,0,0,0,0,0c-2.5,3.2-6.2,5-10.3,5
				H62.8z M74.4,50.6L74.4,50.6L74.4,50.6z"/>
		</g>
	</g>
	<g>
		<path class="st6" d="M100,109.1c-6,0-11.7-2.2-16.1-6.4c-4.7-4.4-7.4-10.7-7.4-17.2C76.5,72.6,87,62,100,62
			c6.5,0,12.7,2.7,17.2,7.4c4.5,4.8,6.7,11,6.3,17.6c-0.7,11.8-10.2,21.3-22,22C101,109.1,100.5,109.1,100,109.1z M100,66.1
			c-10.7,0-19.4,8.7-19.4,19.5c0,5.4,2.2,10.5,6.1,14.2c4,3.7,9.1,5.6,14.6,5.2c9.8-0.6,17.6-8.4,18.2-18.2
			c0.3-5.4-1.5-10.6-5.2-14.6C110.5,68.3,105.4,66.1,100,66.1z"/>
	</g>
	<g>
		<path class="st6" d="M135.8,116.5c-1.2,0-2.3-0.4-3.3-1.1c-1.3-1-2-2.5-2-4.1c0-2.9,2.4-5.2,5.2-5.2c1.6,0,3.1,0.7,4.1,2
			c1,1.3,1.4,2.9,1,4.5c-0.4,1.9-2,3.4-3.9,3.9C136.6,116.5,136.2,116.5,135.8,116.5z M135.8,108c-1.8,0-3.2,1.5-3.2,3.2
			c0,1,0.4,1.9,1.2,2.5c0.8,0.6,1.8,0.8,2.8,0.6c1.2-0.3,2.1-1.2,2.4-2.4c0.2-1,0-2-0.6-2.8C137.7,108.5,136.8,108,135.8,108z"/>
	</g>
</g>
</svg>
