<?xml version="1.0" encoding="utf-8"?>
<!-- Generator: Adobe Illustrator 25.4.1, SVG Export Plug-In . SVG Version: 6.00 Build 0)  -->
<svg version="1.1" id="Layer_1" xmlns="http://www.w3.org/2000/svg" xmlns:xlink="http://www.w3.org/1999/xlink" x="0px" y="0px"
	 viewBox="0 0 200 200" style="enable-background:new 0 0 200 200;" xml:space="preserve">
<style type="text/css">
	.st0{opacity:0.5;enable-background:new    ;}
	.st1{fill:#FFFFFF;}
</style>
<path class="st0" d="M174.1,5.9H25.8C11.5,5.9,0,17.4,0,31.7v109.7c0,14.2,11.5,25.8,25.8,25.8h44.7c7.1,0,13.7,4,17,10.3l7,13.3
	c2.3,4.5,8.8,4.5,11.1,0l7-13.3c3.4-6.3,9.9-10.3,17.1-10.3h44.6c14.2,0,25.8-11.5,25.8-25.8V31.7C199.9,17.4,188.4,5.9,174.1,5.9z"
	/>
<g>
	<g>
		<g>
			<g>
				<path class="st1" d="M147.5,54.9c-2.4-3-6.1-5-10.2-5H62.8c-4.1,0-7.9,1.9-10.2,5c-1.8,2.2-2.8,5-2.8,8.1v47.2
					c0,7.2,5.9,13,13,13h74.4c7.2,0,13-5.8,13-13V62.9C150.2,59.9,149.2,57.1,147.5,54.9z M146.2,110.2c0,4.9-4,9-9,9H62.8
					c-4.9,0-9-4-9-9V62.9c0-1.9,0.6-3.7,1.6-5.1c0.8-1.1,1.9-2.1,3.1-2.7L57.5,54h85.1l-1.1,1.1c1.2,0.7,2.3,1.6,3.1,2.7
					c1,1.5,1.6,3.2,1.6,5.1V110.2z"/>
			</g>
		</g>
	</g>
	<g>
		<g>
			<path class="st1" d="M115.8,86.4c-0.1-0.6-0.2-1.2-0.4-1.7v0c-0.1-0.3-0.2-0.7-0.4-1c-0.2-0.5-0.5-1-0.8-1.5
				c-0.2-0.4-0.5-0.8-0.8-1.1c-1.7-2.1-4.2-3.3-6.9-3.3c-2.4,0-4.9,1.4-6.6,3.3c-1.8-1.8-4.2-3.3-6.7-3.3c-2.7,0-5.2,1.2-6.8,3.3
				c-0.3,0.4-0.6,0.8-0.8,1.2c-0.3,0.5-0.6,1.1-0.8,1.7c-0.1,0.3-0.2,0.6-0.3,0.8c-0.2,0.6-0.3,1.2-0.4,1.8c-0.4,3.6,1,7.3,3.9,9.9
				l10.8,10.4c0.4,0.4,0.9,0.6,1.4,0.6s1-0.2,1.4-0.6l10.5-10.4C115,93.6,116.3,90,115.8,86.4z M109.3,93.4l-9.1,9l-0.2-0.2
				l-2.3-2.2l-6.9-6.6c-0.6-0.5-1.1-1.1-1.5-1.7l0,0c-0.9-1.4-1.2-2.9-1.1-4.3c0-0.8,0.2-1.5,0.4-2.1c0,0,0-0.1,0-0.1
				c0.2-0.6,0.6-1.2,1.1-1.8c0.8-0.9,2-1.6,3.5-1.6c1.6,0,3.9,1.7,4.9,3.6c0.3,0.7,1.1,1.1,1.8,1.1c0.8,0,1.5-0.4,1.8-1.1
				c0.9-1.9,3.2-3.6,4.8-3.6c1.4,0,2.7,0.6,3.6,1.6c0.4,0.5,0.8,1,1.1,1.7c0,0,0,0,0,0c0.3,0.6,0.4,1.4,0.5,2.2
				c0.1,1.2-0.2,2.6-0.9,4C110.5,92.1,110,92.8,109.3,93.4z"/>
		</g>
	</g>
	<g>
		<path class="st1" d="M137.2,49.9H62.7c-4.1,0-7.9,1.9-10.2,5l2.9,2.9l28.7,28.7l5.2,5.2c-0.9-1.4-1.2-2.9-1.1-4.3
			c0-0.8,0.2-1.5,0.4-2.1c0,0,0-0.1,0-0.1l-3-3.1L58.5,55.1L57.4,54h85.1l-1.1,1.1l-27.1,27l-3,3c0,0,0,0,0,0
			c0.3,0.6,0.4,1.4,0.5,2.2c0.1,1.2-0.2,2.6-0.9,4l5-5l28.6-28.6l2.9-2.9C145,51.8,141.3,49.9,137.2,49.9z M100,102.3L100,102.3
			l-2.3-2.2L100,102.3z"/>
	</g>
</g>
</svg>
